<svg xmlns="http://www.w3.org/2000/svg" viewBox="0 0 512 512" role="img" aria-labelledby="title desc">
  <title id="title">روافد</title>
  <desc id="desc">رمز منصة روافد</desc>
  <defs>
    <linearGradient id="g" x1="0" y1="0" x2="1" y2="1">
      <stop offset="0" stop-color="#0f8f88"/>
      <stop offset="1" stop-color="#3ec7ad"/>
    </linearGradient>
  </defs>
  <rect width="512" height="512" rx="112" fill="#fffefb"/>
  <rect x="56" y="56" width="400" height="400" rx="104" fill="url(#g)"/>
  <path d="M142 316c66-6 108-34 126-84 18-50 54-82 108-96-5 61-28 110-70 145-43 36-97 53-164 51z" fill="#fff" opacity=".96"/>
  <path d="M156 361c50-2 93-17 128-45 35-27 60-64 75-109-1 66-23 119-66 158-39 35-85 54-137 57z" fill="#e7ac3c" opacity=".95"/>
  <circle cx="175" cy="184" r="42" fill="#fff" opacity=".96"/>
</svg>
