<svg xmlns="http://www.w3.org/2000/svg">
  <symbol id="platform-knowledge" viewBox="0 0 24 24"><path d="M4 5.5A2.5 2.5 0 0 1 6.5 3H11v17H6.5A2.5 2.5 0 0 0 4 22V5.5Z"/><path d="M20 5.5A2.5 2.5 0 0 0 17.5 3H13v17h4.5A2.5 2.5 0 0 1 20 22V5.5Z"/></symbol>
  <symbol id="platform-specialist" viewBox="0 0 24 24"><circle cx="12" cy="7.5" r="3.5"/><path d="M5 21a7 7 0 0 1 14 0"/><path d="M18.5 5.5v4M16.5 7.5h4"/></symbol>
  <symbol id="platform-center" viewBox="0 0 24 24"><path d="M4 21V7l8-4 8 4v14"/><path d="M8 21v-5h8v5M9 9h2M13 9h2M9 12h2M13 12h2"/></symbol>
  <symbol id="platform-tools" viewBox="0 0 24 24"><path d="M14.7 6.3a4 4 0 0 0-5.2 5.2L4 17l3 3 5.5-5.5a4 4 0 0 0 5.2-5.2l-2.3 2.3-3-3 2.3-2.3Z"/></symbol>
  <symbol id="platform-community" viewBox="0 0 24 24"><circle cx="9" cy="8" r="3"/><circle cx="17" cy="10" r="2.5"/><path d="M3.5 21a5.5 5.5 0 0 1 11 0M14 21a4 4 0 0 1 7 0"/></symbol>
  <symbol id="platform-secure" viewBox="0 0 24 24"><path d="M12 3 5 6v5c0 4.8 2.8 8.4 7 10 4.2-1.6 7-5.2 7-10V6l-7-3Z"/><path d="m9 12 2 2 4-4"/></symbol>
  <symbol id="platform-search" viewBox="0 0 24 24"><circle cx="10.5" cy="10.5" r="6.5"/><path d="m16 16 5 5"/></symbol>
  <symbol id="platform-review" viewBox="0 0 24 24"><path d="M4 5h16v14H4z"/><path d="m8 11 2.2 2.2L16.5 7M8 16h8"/></symbol>
  <symbol id="nav-home" viewBox="0 0 24 24"><path d="M3 10.5 12 3l9 7.5"/><path d="M5 9.5V21h14V9.5"/><path d="M9.5 21v-6h5v6"/></symbol>
  <symbol id="nav-search" viewBox="0 0 24 24"><circle cx="11" cy="11" r="7"/><path d="m20 20-4-4"/></symbol>
  <symbol id="nav-discover" viewBox="0 0 24 24"><circle cx="12" cy="12" r="9"/><path d="m15.5 8.5-2.2 4.8-4.8 2.2 2.2-4.8 4.8-2.2Z"/></symbol>
  <symbol id="nav-messages" viewBox="0 0 24 24"><path d="M4 5h16v11H9l-5 4V5Z"/><path d="M8 9h8M8 12h5"/></symbol>
  <symbol id="nav-account" viewBox="0 0 24 24"><circle cx="12" cy="8" r="4"/><path d="M4.5 21a7.5 7.5 0 0 1 15 0"/></symbol>
  <symbol id="nav-specialists" viewBox="0 0 24 24"><circle cx="12" cy="7.5" r="3.5"/><path d="M5.5 20a6.5 6.5 0 0 1 13 0"/><path d="M18.5 7.5h3M20 6v3"/></symbol>
  <symbol id="nav-more" viewBox="0 0 24 24"><circle cx="5" cy="12" r="1" fill="currentColor" stroke="none"/><circle cx="12" cy="12" r="1" fill="currentColor" stroke="none"/><circle cx="19" cy="12" r="1" fill="currentColor" stroke="none"/></symbol>
</svg>
